<?xml version="1.0" encoding="UTF-8"?>
<svg version="1.1" xmlns="http://www.w3.org/2000/svg" width="500" height="500">
<path d="M0 0 C165 0 330 0 500 0 C500 165 500 330 500 500 C335 500 170 500 0 500 C0 335 0 170 0 0 Z " fill="#000000" transform="translate(0,0)"/>
<path d="M0 0 C1.36801758 -0.00580078 1.36801758 -0.00580078 2.76367188 -0.01171875 C3.70919922 -0.00011719 4.65472656 0.01148438 5.62890625 0.0234375 C6.57056641 0.01183594 7.51222656 0.00023437 8.48242188 -0.01171875 C14.60224004 0.01419438 18.14024575 0.69933398 22.81640625 4.8359375 C31.46364575 14.66234602 34.74131396 27.63762534 36.19140625 40.3984375 C36.84397081 38.69266408 37.48813666 36.98367661 38.12890625 35.2734375 C38.48855469 34.32210937 38.84820312 33.37078125 39.21875 32.390625 C41.48194685 25.4283407 41.46782403 18.37598892 41.62109375 11.12304688 C41.65203125 10.30255859 41.68296875 9.48207031 41.71484375 8.63671875 C41.73466309 7.89462158 41.75448242 7.15252441 41.77490234 6.38793945 C42.30486866 3.85646495 43.17347145 2.97801385 45.19140625 1.3984375 C49.59641734 -0.06989953 53.88919563 0.17350042 58.50390625 0.1484375 C59.9105957 0.1175 59.9105957 0.1175 61.34570312 0.0859375 C66.61464456 0.0562324 70.80849042 0.10946314 75.19140625 3.3984375 C76.44046945 6.37848591 76.34216842 7.87632429 75.44921875 10.96875 C74.88847656 12.23332031 74.88847656 12.23332031 74.31640625 13.5234375 C73.94773437 14.37164062 73.5790625 15.21984375 73.19921875 16.09375 C72.86664063 16.85429687 72.5340625 17.61484375 72.19140625 18.3984375 C70.50985838 23.44308111 70.92681518 28.71945899 70.89624023 34.00268555 C70.88475786 35.38267297 70.86436523 36.7626173 70.8347168 38.14233398 C70.6597229 46.29274793 70.63873903 52.47803513 75.19140625 59.3984375 C75.52140625 59.7284375 75.85140625 60.0584375 76.19140625 60.3984375 C76.56640625 63.2734375 76.56640625 63.2734375 76.19140625 66.3984375 C73.81640625 68.2109375 73.81640625 68.2109375 71.19140625 69.3984375 C70.20140625 69.8934375 70.20140625 69.8934375 69.19140625 70.3984375 C65.94769195 70.66405182 62.69478694 70.63000475 59.44140625 70.6484375 C58.54679687 70.6690625 57.6521875 70.6896875 56.73046875 70.7109375 C51.43545869 70.7421765 47.78816836 70.33443395 43.19140625 67.3984375 C42.19140625 66.3984375 42.19140625 66.3984375 41.87890625 63.7734375 C42.28748206 59.36081873 43.88576353 57.1713074 46.19140625 53.3984375 C47.56944644 49.59160148 47.30296953 45.64143352 47.25390625 41.6484375 C47.24939453 40.95105469 47.24488281 40.25367188 47.24023438 39.53515625 C47.22850645 37.82287947 47.21057278 36.11064717 47.19140625 34.3984375 C46.75570312 35.43742187 46.32 36.47640625 45.87109375 37.546875 C36.12622033 60.4933251 36.12622033 60.4933251 29.19140625 65.3984375 C25.56640625 65.6484375 25.56640625 65.6484375 22.19140625 64.3984375 C19.82201161 60.55838412 19.13885667 57.18103656 18.44140625 52.7734375 C16.81008808 43.73206393 11.28169431 35.88811244 6.19140625 28.3984375 C5.63781762 39.96228884 5.52733343 53.40232827 12.19140625 63.3984375 C12.06640625 65.9609375 12.06640625 65.9609375 11.19140625 68.3984375 C6.65433255 71.39559325 1.41601327 70.93171839 -3.80859375 70.3984375 C-6.99609375 68.8984375 -6.99609375 68.8984375 -8.80859375 67.3984375 C-8.26001533 63.14695472 -6.64894248 59.75736641 -4.74609375 55.97265625 C-0.59066174 44.56253252 -0.99424492 25.79956808 -4.80859375 14.3984375 C-6.08931746 12.3643469 -7.41147101 10.35440934 -8.80859375 8.3984375 C-9.30859375 5.7109375 -9.30859375 5.7109375 -8.80859375 3.3984375 C-5.91306374 0.68875404 -3.92641737 0.01606522 0 0 Z " fill="#FAFAFA" transform="translate(108.80859375,211.6015625)"/>
<path d="M0 0 C0.76447952 -0.0038269 1.52895905 -0.00765381 2.31660461 -0.01159668 C3.92942628 -0.01430794 5.54229251 -0.00700181 7.1550293 0.00976562 C9.58941097 0.03104138 12.02079184 0.01001723 14.45507812 -0.015625 C24.52727717 -0.03355085 34.03285049 0.53141531 42.36328125 6.90625 C46.66942901 11.31742576 49.5429881 15.40510591 50.30078125 21.59375 C49.67312068 28.18418603 46.9528277 33.63933998 42.11328125 38.15625 C41.39140625 38.61 40.66953125 39.06375 39.92578125 39.53125 C41.01890625 40.088125 42.11203125 40.645 43.23828125 41.21875 C46.6746354 43.22502546 48.43502148 44.7215306 49.92578125 48.53125 C50.07957395 50.19550677 50.2017657 51.86283797 50.30078125 53.53125 C50.62705445 58.53657743 52.23242311 60.12947277 55.92578125 63.53125 C55.73828125 66.34375 55.73828125 66.34375 54.92578125 68.53125 C48.35134222 71.4532229 39.80064895 71.93100908 32.98828125 69.40625 C29.40454146 67.2121236 26.64687794 65.40190205 24.92578125 61.53125 C24.43960341 58.1529373 24.23882716 54.86866088 24.1640625 51.45703125 C24.14838638 48.33938404 24.14838638 48.33938404 21.92578125 45.53125 C19.96216261 44.95376197 19.96216261 44.95376197 17.80078125 44.84375 C16.52203125 44.740625 15.24328125 44.6375 13.92578125 44.53125 C15.58003173 51.70632344 15.58003173 51.70632344 18.61328125 58.34375 C20.37517902 61.28024629 20.43722975 63.1703027 19.92578125 66.53125 C15.14703979 71.30999146 9.41061867 70.74523949 3.11328125 70.78125 C2.22318359 70.801875 1.33308594 70.8225 0.41601562 70.84375 C-4.81209644 70.87475437 -8.60521011 70.57275829 -13.07421875 67.53125 C-14.19921875 64.78125 -14.19921875 64.78125 -14.07421875 61.53125 C-13.12636767 59.83165496 -12.16968478 58.13507839 -11.1328125 56.48828125 C-5.10297805 45.34087512 -7.34883779 28.30130186 -10.07421875 16.53125 C-11.21851042 14.00682028 -12.5770153 11.87686873 -14.07421875 9.53125 C-14.69921875 6.84375 -14.69921875 6.84375 -14.07421875 4.53125 C-9.51199815 0.73064468 -5.77317555 -0.06474544 0 0 Z " fill="#FAFAFA" transform="translate(270.07421875,211.46875)"/>
<path d="M0 0 C1.02029297 -0.02449219 2.04058594 -0.04898438 3.09179688 -0.07421875 C10.73486629 -0.1038622 14.67133377 1.21217123 20.69140625 5.953125 C28.80508685 14.65652174 31.44166007 27.37590562 34.7421875 38.51171875 C36.02026658 42.38292521 37.72799628 45.80590393 39.6875 49.375 C41.65493871 37.60184673 43.73582735 19.10271074 36.5 8.9375 C34.6875 6.375 34.6875 6.375 34.75 4.125 C35.6875 2.375 35.6875 2.375 38.6875 0.375 C41.68359375 0.109375 41.68359375 0.109375 45.125 0.125 C46.25808594 0.11984375 47.39117187 0.1146875 48.55859375 0.109375 C51.52275691 0.36101432 53.19063671 0.82903059 55.6875 2.375 C56.26449174 7.27942981 54.34654414 9.38643379 51.6875 13.375 C49.64694976 19.79736339 49.33782201 25.78909506 49.375 32.5 C49.37846436 33.51175293 49.38192871 34.52350586 49.38549805 35.56591797 C49.50998824 44.18394069 49.74662903 53.50418246 54.3125 61.06640625 C55.6875 63.375 55.6875 63.375 55.375 66.1875 C55.148125 66.909375 54.92125 67.63125 54.6875 68.375 C46.52490409 71.46689239 37.48166512 71.801162 29.25 68.6875 C27.70771737 67.96053208 26.18413049 67.19183244 24.6875 66.375 C24.04167969 66.024375 23.39585937 65.67375 22.73046875 65.3125 C9.32230481 56.89953439 4.46213566 36.76005634 0.6875 22.375 C0.6875 21.715 0.6875 21.055 0.6875 20.375 C0.0275 20.375 -0.6325 20.375 -1.3125 20.375 C-1.25982804 24.77174614 -1.16457437 29.16664528 -1.0625 33.5625 C-1.04832031 34.78904297 -1.03414063 36.01558594 -1.01953125 37.27929688 C-0.76974573 46.74616794 0.31967981 56.32326971 5.6875 64.375 C5.625 66.4375 5.625 66.4375 4.6875 68.375 C0.28556669 71.21495697 -5.26326686 70.93065724 -10.3125 70.375 C-13.9375 68.875 -13.9375 68.875 -16.3125 67.375 C-15.53647495 63.729299 -14.06075971 60.89671309 -12.25 57.66796875 C-9.39665216 50.68915548 -10.06000761 42.52711579 -10.01733398 35.09667969 C-10.00580674 33.70237079 -9.98534261 32.30810627 -9.95581055 30.9140625 C-9.78437845 22.79258648 -9.70368955 15.40027594 -14.3125 8.375 C-14.9725 7.715 -15.6325 7.055 -16.3125 6.375 C-16.1875 4.375 -16.1875 4.375 -15.3125 2.375 C-10.60215322 -0.62883418 -5.3985287 0.00674395 0 0 Z " fill="#F9F9F9" transform="translate(343.3125,211.625)"/>
<path d="M0 0 C1.62563118 -0.00786278 1.62563118 -0.00786278 3.28410339 -0.0158844 C5.57456609 -0.02230043 7.86506175 -0.02097305 10.15551758 -0.01245117 C13.64529758 -0.0039614 17.13342932 -0.03267783 20.62304688 -0.06445312 C22.8528641 -0.06606586 25.0826842 -0.06548622 27.3125 -0.0625 C28.34921341 -0.07373398 29.38592682 -0.08496796 30.45405579 -0.09654236 C37.53694245 -0.02903798 42.9451273 1.13880615 48.44709778 5.77467346 C51.03798986 8.48155343 51.85357785 10.42119783 52.41796875 14.12109375 C51.85546875 17.43359375 51.85546875 17.43359375 50.1328125 19.11328125 C46.21846043 21.38266547 42.24241822 21.08650094 37.85546875 20.43359375 C34.91809805 18.4238138 33.77894817 16.31403035 31.85546875 13.30859375 C29.50215461 9.90588622 29.50215461 9.90588622 25.85546875 8.43359375 C22.11463706 8.03279035 19.8205728 7.8169995 16.60546875 9.87109375 C12.81475242 15.42178552 11.55689246 21.84021086 10.85546875 28.43359375 C17.85095074 27.65619735 17.85095074 27.65619735 23.48046875 23.80859375 C23.93421875 23.02484375 24.38796875 22.24109375 24.85546875 21.43359375 C27.29296875 21.80859375 27.29296875 21.80859375 29.85546875 22.43359375 C31.32614645 25.37494915 31.02595874 28.0358678 31.04296875 31.30859375 C31.05714844 32.54351562 31.07132813 33.7784375 31.0859375 35.05078125 C30.8731233 38.17446087 30.50784101 39.83420971 28.85546875 42.43359375 C25.74729049 42.08824061 24.26585695 41.9047802 22.16796875 39.49609375 C18.61604534 36.32816206 14.46530837 36.10219644 9.85546875 35.43359375 C11.06733682 49.12370568 11.06733682 49.12370568 17.2109375 61.1640625 C19.38180216 62.83990814 20.52792594 62.75896907 23.23046875 62.49609375 C27.02736577 61.93609759 27.77304737 61.51418355 30.66796875 58.68359375 C31.38984375 57.61109375 32.11171875 56.53859375 32.85546875 55.43359375 C36.67365057 50.52450284 36.67365057 50.52450284 38.85546875 49.43359375 C43.41751471 49.05965556 45.81210697 48.86843945 49.85546875 51.05859375 C51.85546875 53.43359375 51.85546875 53.43359375 52.41796875 56.30859375 C51.60707584 60.81355438 49.917673 63.98683576 46.1015625 66.6640625 C41.92364071 69.08010495 39.00270702 70.55625904 34.22558594 70.59472656 C33.2640863 70.60433411 32.30258667 70.61394165 31.31195068 70.62384033 C30.2692804 70.62809021 29.22661011 70.63234009 28.15234375 70.63671875 C27.08179749 70.64241882 26.01125122 70.6481189 24.90826416 70.6539917 C22.63855989 70.66345138 20.36884182 70.66997951 18.09912109 70.67382812 C14.63354329 70.68351527 11.16856305 70.7145225 7.703125 70.74609375 C5.49870144 70.75262555 3.29427364 70.75787533 1.08984375 70.76171875 C0.05527039 70.77406555 -0.97930298 70.78641235 -2.04522705 70.7991333 C-7.69210755 70.78173601 -12.86562229 70.71250271 -17.14453125 66.43359375 C-17.71113207 61.67414685 -16.68611532 59.08176779 -14.1171875 55.2421875 C-11.22600323 49.86621032 -11.96082313 43.22393094 -11.95703125 37.30859375 C-11.94478516 36.32632813 -11.93253906 35.3440625 -11.91992188 34.33203125 C-11.90420935 26.3710198 -12.22308126 18.27649374 -15.83203125 11.05859375 C-17.14453125 8.43359375 -17.14453125 8.43359375 -17.14453125 5.74609375 C-14.16858877 -1.13577323 -6.33649991 -0.01783844 0 0 Z " fill="#FAFAFA" transform="translate(203.14453125,211.56640625)"/>
<path d="M0 0 C3.50827405 0.18963643 4.7412563 0.72647095 7.1875 3.3125 C11.57436304 9.81715898 11.63013769 15.2153759 11 23 C9.51960594 27.21912307 7.57374179 30.26713863 4 33 C1.25 33.25 1.25 33.25 -1 33 C-4.00694568 27.16111605 -4.46162186 22.39088858 -4.375 15.875 C-4.38660156 14.99457031 -4.39820313 14.11414063 -4.41015625 13.20703125 C-4.38590408 7.84730171 -3.97950064 3.97950064 0 0 Z " fill="#050505" transform="translate(288,217)"/>
<path d="M0 0 C6.0546875 -0.1953125 6.0546875 -0.1953125 8 0 C8.66 0.66 9.32 1.32 10 2 C9.96712417 4.72869407 9.43602229 7.2966618 9 10 C9.66 10 10.32 10 11 10 C11 10.66 11 11.32 11 12 C9.68 12 8.36 12 7 12 C6.67 11.01 6.34 10.02 6 9 C5.01 8.67 4.02 8.34 3 8 C3 9.32 3 10.64 3 12 C2.01 12 1.02 12 0 12 C0 8.04 0 4.08 0 0 Z " fill="#949494" transform="translate(363,294)"/>
<path d="M0 0 C-0.33 0.99 -0.66 1.98 -1 3 C-1.33 2.67 -1.66 2.34 -2 2 C-3.66617115 1.95936168 -5.33388095 1.957279 -7 2 C-7 3.98 -7 5.96 -7 8 C-4.03 8.495 -4.03 8.495 -1 9 C-1 8.34 -1 7.68 -1 7 C-2.65 6.67 -4.3 6.34 -6 6 C-6 5.34 -6 4.68 -6 4 C-3.36 4 -0.72 4 2 4 C2 6.31 2 8.62 2 11 C0.37536158 11.05395478 -1.24978541 11.09277195 -2.875 11.125 C-3.77992188 11.14820313 -4.68484375 11.17140625 -5.6171875 11.1953125 C-8 11 -8 11 -10 9 C-10.543379 3.02283105 -10.543379 3.02283105 -8.9375 0 C-5.86664787 -1.58495594 -3.27813225 -0.68036707 0 0 Z " fill="#E8E8E8" transform="translate(259,295)"/>
<path d="M0 0 C0.99 0 1.98 0 3 0 C4.32 2.31 5.64 4.62 7 7 C7.33 4.69 7.66 2.38 8 0 C8.66 0 9.32 0 10 0 C10 3.96 10 7.92 10 12 C6 11 6 11 4.25 8.4375 C3.8375 7.633125 3.425 6.82875 3 6 C2.67 7.98 2.34 9.96 2 12 C1.34 12 0.68 12 0 12 C0 8.04 0 4.08 0 0 Z " fill="#E6E6E6" transform="translate(293,294)"/>
<path d="M0 0 C0.99 0 1.98 0 3 0 C4.32 2.31 5.64 4.62 7 7 C7.33 4.69 7.66 2.38 8 0 C8.66 0 9.32 0 10 0 C10 3.96 10 7.92 10 12 C6 11 6 11 4.25 8.4375 C3.8375 7.633125 3.425 6.82875 3 6 C2.67 7.98 2.34 9.96 2 12 C1.34 12 0.68 12 0 12 C0 8.04 0 4.08 0 0 Z " fill="#E6E6E6" transform="translate(224,294)"/>
<path d="M0 0 C0.78375 0.04125 1.5675 0.0825 2.375 0.125 C3.035 1.445 3.695 2.765 4.375 4.125 C3.715 4.125 3.055 4.125 2.375 4.125 C2.375 3.465 2.375 2.805 2.375 2.125 C1.055 2.125 -0.265 2.125 -1.625 2.125 C-1.625 3.115 -1.625 4.105 -1.625 5.125 C-0.84125 5.08375 -0.0575 5.0425 0.75 5 C3.375 5.125 3.375 5.125 5.375 7.125 C4.83928571 10.66071429 4.83928571 10.66071429 3.375 12.125 C1.37541636 12.16580783 -0.62545254 12.16754356 -2.625 12.125 C-3.285 10.805 -3.945 9.485 -4.625 8.125 C-3.965 8.125 -3.305 8.125 -2.625 8.125 C-2.625 8.785 -2.625 9.445 -2.625 10.125 C-0.975 10.125 0.675 10.125 2.375 10.125 C1.52933261 7.85326908 1.52933261 7.85326908 -1.125 7.25 C-3.625 6.125 -3.625 6.125 -4.5625 4.125 C-4.583125 3.465 -4.60375 2.805 -4.625 2.125 C-2.625 0.125 -2.625 0.125 0 0 Z " fill="#CCCCCC" transform="translate(392.625,293.875)"/>
<path d="M0 0 C2.64 0 5.28 0 8 0 C8 0.66 8 1.32 8 2 C6.02 2 4.04 2 2 2 C2 2.99 2 3.98 2 5 C3.98 5 5.96 5 8 5 C8 5.66 8 6.32 8 7 C6.02 7 4.04 7 2 7 C2 7.99 2 8.98 2 10 C4.31 10 6.62 10 9 10 C9 10.66 9 11.32 9 12 C6.03 12 3.06 12 0 12 C0 8.04 0 4.08 0 0 Z " fill="#D8D8D8" transform="translate(201,294)"/>
<path d="M0 0 C2.64 0 5.28 0 8 0 C8 0.66 8 1.32 8 2 C6.02 2 4.04 2 2 2 C2 2.99 2 3.98 2 5 C3.65 5 5.3 5 7 5 C7 5.66 7 6.32 7 7 C5.35 7 3.7 7 2 7 C2 7.99 2 8.98 2 10 C3.98 10 5.96 10 8 10 C8 10.66 8 11.32 8 12 C5.36 12 2.72 12 0 12 C0 8.04 0 4.08 0 0 Z " fill="#E5E5E5" transform="translate(318,294)"/>
<path d="M0 0 C2.64 0 5.28 0 8 0 C8 0.66 8 1.32 8 2 C6.02 2 4.04 2 2 2 C2 2.99 2 3.98 2 5 C3.65 5 5.3 5 7 5 C7 5.66 7 6.32 7 7 C5.35 7 3.7 7 2 7 C2 7.99 2 8.98 2 10 C3.98 10 5.96 10 8 10 C8 10.66 8 11.32 8 12 C5.36 12 2.72 12 0 12 C0 8.04 0 4.08 0 0 Z " fill="#DDDDDD" transform="translate(341,294)"/>
<path d="M0 0 C1.2065625 0.0309375 1.2065625 0.0309375 2.4375 0.0625 C2.7675 1.0525 3.0975 2.0425 3.4375 3.0625 C1.7875 3.0625 0.1375 3.0625 -1.5625 3.0625 C-1.5625 3.7225 -1.5625 4.3825 -1.5625 5.0625 C0.4175 5.0625 2.3975 5.0625 4.4375 5.0625 C4.1075 6.0525 3.7775 7.0425 3.4375 8.0625 C1.43795254 8.10504356 -0.56291636 8.10330783 -2.5625 8.0625 C-3.5625 7.0625 -3.5625 7.0625 -3.6875 4.0625 C-3.52180824 0.08589776 -3.52180824 0.08589776 0 0 Z " fill="#101010" transform="translate(254.5625,295.9375)"/>
<path d="M0 0 C2.64 0 5.28 0 8 0 C8 2.31 8 4.62 8 7 C5.36 6.67 2.72 6.34 0 6 C0 5.67 0 5.34 0 5 C1.65 5 3.3 5 5 5 C5 4.34 5 3.68 5 3 C3.35 2.67 1.7 2.34 0 2 C0 1.34 0 0.68 0 0 Z " fill="#C9C9C9" transform="translate(253,299)"/>
<path d="M0 0 C2.64 0 5.28 0 8 0 C8 0.33 8 0.66 8 1 C6.35 1.33 4.7 1.66 3 2 C2.67 3.32 2.34 4.64 2 6 C3.32 6.33 4.64 6.66 6 7 C4.68 7 3.36 7 2 7 C2 8.65 2 10.3 2 12 C1.34 12 0.68 12 0 12 C0 8.04 0 4.08 0 0 Z " fill="#CBCBCB" transform="translate(363,294)"/>
<path d="M0 0 C0.66 0 1.32 0 2 0 C2 3.96 2 7.92 2 12 C1.01 12 0.02 12 -1 12 C-0.67 8.04 -0.34 4.08 0 0 Z " fill="#F1F1F1" transform="translate(301,294)"/>
<path d="M0 0 C0.66 0 1.32 0 2 0 C2 3.96 2 7.92 2 12 C1.01 12 0.02 12 -1 12 C-0.67 8.04 -0.34 4.08 0 0 Z " fill="#F1F1F1" transform="translate(232,294)"/>
<path d="M0 0 C0.3403125 0.928125 0.3403125 0.928125 0.6875 1.875 C2.37929835 4.61410209 3.99244161 5.05024472 7 6 C7 6.33 7 6.66 7 7 C5.02 7 3.04 7 1 7 C-0.0625 5.1875 -0.0625 5.1875 -1 3 C-0.67 2.01 -0.34 1.02 0 0 Z " fill="#E1E1E1" transform="translate(250,299)"/>
</svg>
